<svg viewBox="0 0 340 700" xmlns="http://www.w3.org/2000/svg" font-family="-apple-system, Helvetica, Arial, sans-serif">
  <defs>
    <filter id="cardShadow" x="-20%" y="-20%" width="140%" height="140%">
      <feDropShadow dx="0" dy="2" stdDeviation="4" flood-color="#000000" flood-opacity="0.08"/>
    </filter>
    <linearGradient id="hdrGrad" x1="0" y1="0" x2="0" y2="1">
      <stop offset="0%" stop-color="#1f6b49"/>
      <stop offset="100%" stop-color="#163f2c"/>
    </linearGradient>
    <linearGradient id="btnGrad" x1="0" y1="0" x2="0" y2="1">
      <stop offset="0%" stop-color="#34a06c"/>
      <stop offset="100%" stop-color="#2d8a5a"/>
    </linearGradient>
  </defs>

  <rect x="2" y="2" width="336" height="696" rx="46" fill="#111113"/>
  <rect x="10" y="10" width="320" height="680" rx="38" fill="#FFFFFF"/>
  <clipPath id="screenClip"><rect x="10" y="10" width="320" height="680" rx="38"/></clipPath>

  <g clip-path="url(#screenClip)">
    <rect x="10" y="10" width="320" height="118" fill="url(#hdrGrad)"/>
    <text x="44" y="38" font-size="13" font-weight="600" fill="#FFFFFF">9:41</text>
    <rect x="130" y="10" width="80" height="22" rx="11" fill="#0c2419"/>
    <circle cx="40" cy="68" r="15" fill="#ffffff" opacity="0.12"/>
    <text x="40" y="73" text-anchor="middle" font-size="15" fill="#FFFFFF">←</text>
    <text x="64" y="74" font-size="15" font-weight="700" fill="#FFFFFF">Ativar perfil de prestador</text>
    <g>
      <rect x="24" y="100" width="62" height="4" rx="2" fill="#FFFFFF"/>
      <rect x="92" y="100" width="62" height="4" rx="2" fill="#ffffff" opacity="0.28"/>
      <rect x="160" y="100" width="62" height="4" rx="2" fill="#ffffff" opacity="0.28"/>
      <rect x="228" y="100" width="62" height="4" rx="2" fill="#ffffff" opacity="0.28"/>
    </g>
  </g>

  <text x="24" y="162" font-size="18" font-weight="700" fill="#18181b">Em que você trabalha?</text>
  <text x="24" y="182" font-size="11.5" fill="#a1a1aa">Escolha a categoria principal do seu serviço</text>

  <g font-size="11.5" font-weight="600">
    <rect x="24" y="204" width="92" height="76" rx="14" fill="#e8f5ee" stroke="#2d8a5a" stroke-width="2" filter="url(#cardShadow)"/>
    <circle cx="70" cy="232" r="16" fill="#FFFFFF"/>
    <text x="70" y="238" text-anchor="middle" font-size="17">⚡</text>
    <text x="70" y="264" text-anchor="middle" fill="#1a5c40">Elétrica</text>
    <circle cx="104" cy="216" r="8" fill="#2d8a5a"/>
    <text x="104" y="220" text-anchor="middle" font-size="9" fill="#FFFFFF">✓</text>

    <rect x="124" y="204" width="92" height="76" rx="14" fill="#FFFFFF" stroke="#ededee" stroke-width="1.5" filter="url(#cardShadow)"/>
    <circle cx="170" cy="232" r="16" fill="#fafafa"/>
    <text x="170" y="238" text-anchor="middle" font-size="17">🎨</text>
    <text x="170" y="264" text-anchor="middle" fill="#3f3f46">Pintura</text>

    <rect x="224" y="204" width="92" height="76" rx="14" fill="#FFFFFF" stroke="#ededee" stroke-width="1.5" filter="url(#cardShadow)"/>
    <circle cx="270" cy="232" r="16" fill="#fafafa"/>
    <text x="270" y="238" text-anchor="middle" font-size="17">🚿</text>
    <text x="270" y="264" text-anchor="middle" fill="#3f3f46">Encanamento</text>

    <rect x="24" y="290" width="92" height="76" rx="14" fill="#FFFFFF" stroke="#ededee" stroke-width="1.5" filter="url(#cardShadow)"/>
    <circle cx="70" cy="318" r="16" fill="#fafafa"/>
    <text x="70" y="324" text-anchor="middle" font-size="17">🧹</text>
    <text x="70" y="350" text-anchor="middle" fill="#3f3f46">Limpeza</text>

    <rect x="124" y="290" width="92" height="76" rx="14" fill="#FFFFFF" stroke="#ededee" stroke-width="1.5" filter="url(#cardShadow)"/>
    <circle cx="170" cy="318" r="16" fill="#fafafa"/>
    <text x="170" y="324" text-anchor="middle" font-size="17">🔨</text>
    <text x="170" y="350" text-anchor="middle" fill="#3f3f46">Marcenaria</text>

    <rect x="224" y="290" width="92" height="76" rx="14" fill="#FFFFFF" stroke="#ededee" stroke-width="1.5" filter="url(#cardShadow)"/>
    <circle cx="270" cy="318" r="16" fill="#fafafa"/>
    <text x="270" y="324" text-anchor="middle" font-size="17">🌿</text>
    <text x="270" y="350" text-anchor="middle" fill="#3f3f46">Jardinagem</text>
  </g>

  <rect x="24" y="618" width="292" height="48" rx="14" fill="url(#btnGrad)" filter="url(#cardShadow)"/>
  <text x="170" y="647" text-anchor="middle" font-size="15" font-weight="700" fill="#FFFFFF">Próximo →</text>
  <rect x="130" y="678" width="80" height="5" rx="2.5" fill="#18181b" opacity="0.2"/>
</svg>
