<svg viewBox="0 0 340 700" xmlns="http://www.w3.org/2000/svg" font-family="-apple-system, Helvetica, Arial, sans-serif">
  <defs>
    <filter id="cardShadow" x="-20%" y="-20%" width="140%" height="140%">
      <feDropShadow dx="0" dy="2" stdDeviation="4" flood-color="#000000" flood-opacity="0.08"/>
    </filter>
    <linearGradient id="avatarGrad" x1="0" y1="0" x2="1" y2="1">
      <stop offset="0%" stop-color="#ffc99e"/>
      <stop offset="100%" stop-color="#F97316"/>
    </linearGradient>
    <linearGradient id="btnGrad" x1="0" y1="0" x2="0" y2="1">
      <stop offset="0%" stop-color="#34a06c"/>
      <stop offset="100%" stop-color="#2d8a5a"/>
    </linearGradient>
  </defs>

  <rect x="2" y="2" width="336" height="696" rx="46" fill="#111113"/>
  <rect x="10" y="10" width="320" height="680" rx="38" fill="#FFFFFF"/>

  <text x="44" y="38" font-size="13" font-weight="600" fill="#18181b">9:41</text>
  <rect x="130" y="10" width="80" height="22" rx="11" fill="#111113"/>

  <text x="40" y="74" font-size="15" fill="#18181b">←</text>
  <text x="170" y="74" text-anchor="middle" font-size="14" font-weight="700" fill="#18181b">Editar perfil profissional</text>
  <circle cx="298" cy="68" r="16" fill="url(#btnGrad)" filter="url(#cardShadow)"/>
  <text x="298" y="73" text-anchor="middle" font-size="13" fill="#FFFFFF">✓</text>
  <line x1="10" y1="92" x2="330" y2="92" stroke="#f0f0f1"/>

  <circle cx="170" cy="140" r="36" fill="url(#avatarGrad)" filter="url(#cardShadow)"/>
  <circle cx="170" cy="130" r="13" fill="#ffffff" opacity="0.85"/>
  <path d="M148 156 Q170 138 192 156 L192 163 Q170 174 148 163 Z" fill="#ffffff" opacity="0.85"/>
  <circle cx="196" cy="164" r="13" fill="url(#btnGrad)" stroke="#FFFFFF" stroke-width="2"/>
  <text x="196" y="168" text-anchor="middle" font-size="11" fill="#FFFFFF">📷</text>
  <text x="170" y="190" text-anchor="middle" font-size="10.5" fill="#a1a1aa">Foto de perfil</text>

  <line x1="10" y1="208" x2="330" y2="208" stroke="#f0f0f1"/>

  <text x="24" y="234" font-size="12" font-weight="700" fill="#3f3f46">Negócio ativo</text>
  <text x="24" y="250" font-size="10" fill="#a1a1aa">Visível para clientes na busca</text>
  <rect x="276" y="222" width="40" height="22" rx="11" fill="url(#btnGrad)" filter="url(#cardShadow)"/>
  <circle cx="306" cy="233" r="9" fill="#FFFFFF"/>

  <line x1="10" y1="266" x2="330" y2="266" stroke="#f0f0f1"/>

  <text x="24" y="292" font-size="10.5" font-weight="700" fill="#3f3f46">Categoria *</text>
  <rect x="24" y="298" width="292" height="40" rx="12" fill="#fafafa" stroke="#ededee" stroke-width="1.5"/>
  <text x="38" y="323" font-size="12" fill="#18181b">⚡ Elétrica</text>
  <text x="296" y="323" font-size="11" fill="#a1a1aa">▾</text>

  <text x="24" y="360" font-size="10.5" font-weight="700" fill="#3f3f46">Endereço</text>
  <rect x="24" y="366" width="140" height="38" rx="12" fill="#fafafa" stroke="#ededee" stroke-width="1.5"/>
  <text x="36" y="389" font-size="10.5" fill="#a1a1aa">00000-000</text>
  <rect x="176" y="366" width="140" height="38" rx="12" fill="#fafafa" stroke="#ededee" stroke-width="1.5"/>
  <text x="188" y="389" font-size="10.5" fill="#a1a1aa">Rua, Avenida...</text>

  <text x="24" y="426" font-size="10.5" font-weight="700" fill="#3f3f46">WhatsApp</text>
  <rect x="24" y="432" width="292" height="38" rx="12" fill="#fafafa" stroke="#ededee" stroke-width="1.5"/>
  <text x="38" y="456" font-size="12" fill="#18181b">(11) 99999-9999</text>

  <text x="24" y="492" font-size="10.5" font-weight="700" fill="#3f3f46">Sobre você</text>
  <rect x="24" y="498" width="292" height="56" rx="12" fill="#fafafa" stroke="#ededee" stroke-width="1.5"/>
  <text x="38" y="520" font-size="11" fill="#18181b">Conte sua experiência,</text>
  <text x="38" y="536" font-size="11" fill="#18181b">diferenciais e serviços que oferece...</text>

  <text x="24" y="580" font-size="10.5" font-weight="700" fill="#3f3f46">Formas de pagamento aceitas</text>
  <g font-size="10.5" font-weight="600">
    <rect x="24" y="588" width="56" height="28" rx="10" fill="#e8f5ee" stroke="#2d8a5a" stroke-width="1.4" filter="url(#cardShadow)"/>
    <text x="52" y="606" text-anchor="middle" fill="#1a5c40">Pix</text>
    <rect x="86" y="588" width="80" height="28" rx="10" fill="#e8f5ee" stroke="#2d8a5a" stroke-width="1.4" filter="url(#cardShadow)"/>
    <text x="126" y="606" text-anchor="middle" fill="#1a5c40">Cartão</text>
    <rect x="172" y="588" width="86" height="28" rx="10" fill="#FFFFFF" stroke="#d4d4d8" stroke-width="1.3" filter="url(#cardShadow)"/>
    <text x="215" y="606" text-anchor="middle" fill="#3f3f46">Dinheiro</text>
  </g>

  <text x="24" y="646" font-size="10.5" font-weight="700" fill="#3f3f46">Fotos do portfólio</text>
  <rect x="24" y="652" width="62" height="62" rx="10" fill="#fafafa" stroke="#ededee" stroke-width="1.5" stroke-dasharray="4 3"/>
  <text x="55" y="688" text-anchor="middle" font-size="18" fill="#a1a1aa">+</text>
  <rect x="94" y="652" width="62" height="62" rx="10" fill="#e8d5c0"/>
  <rect x="164" y="652" width="62" height="62" rx="10" fill="#c9cfd6"/>
</svg>
